#!OML:ASF F:\VICON\USERDATA\INSTALL\rory3\rory3.ASF
:FULLY-SPECIFIED
:DEGREES
19
root 0.8463983209532353 17.913098120183992 -4.4010109267884925 -4.044089997249186 -1.0021740842841003 2.3573192000098953
lfemur 0.11127560160140959 -4.089152935823826 -28.40148761916369
ltibia 25.658903321889227
lfoot -17.17998761327571 1.2625045846696077
ltoes 6.189166747311175
rfemur -30.56248762740602 -1.720793302200137 19.07720982771423
rtibia 56.2653907639026
rfoot -10.7770975394865 -9.778443491041122
rtoes -2.3390621649557826
lowerback 11.680485627034026 -0.26079502600388754 -2.241361644886779
upperback 0.545259274620042 -0.597691535183233 0.7494558920769818
thorax -5.953631505418078 -0.22203808735669872 2.1521832881531218
lowerneck -16.137002271674252 -2.751196285078121 -1.509556920721485
upperneck 22.34738792823677 -3.2158094668765704 -0.9678538262856211
head 9.759249739827716 -1.735014829725969 -0.5050681063954411
lclavicle -4.533851499001848e-16 -7.764982017229942e-16
lhumerus -26.301807227461747 0.30617344334105656 81.0390928484179
lradius 26.75899579888305
lwrist 5.63477892746222
lhand -28.14730092774284 16.84630716352252
lfingers 7.12502
lthumb -1.5281309188310903 46.8206069198239
rclavicle -4.533851499001848e-16 -7.764982017229942e-16
rhumerus -30.7354960243083 -23.162293290639198 -77.13480321962425
rradius 24.423504648601945
rwrist 5.42080709630476
rhand -17.70510144704442 24.621290645444187
rfingers 7.12502
rthumb 8.554898534443188 -5.18538948581962
20
root 0.7923675799701786 17.92259743744692 -3.696630600821715 -3.416144067408406 -0.492401785085852 2.7854981293614482
lfemur 3.997251184461147 -3.3273351703560348 -28.620987068471763
ltibia 21.374806168274052
lfoot -17.550987701547925 -0.13040761553764213
ltoes 2.4839722006419875
rfemur -31.21258729300748 -0.5718360480955771 18.460610441635854
rtibia 44.20809692606627
rfoot -8.286160029530228 -10.984991457493614
rtoes -5.40910743056839
lowerback 11.26958914545841 -0.5300272171290894 -3.0926397053280263
upperback 0.5493901712211158 -1.0473826842282472 0.8836971700674892
thorax -5.677745515037932 -0.4234642364766087 2.8401704438569793
lowerneck -16.998687037194852 -2.692578066175283 -1.7603530622154213
upperneck 22.402087290876835 -3.141610780535122 -0.5864645567261155
head 9.952333080018489 -1.6755975392412936 -0.33511802426365755
lclavicle -4.533851309123039e-16 -7.764981973281276e-16
lhumerus -24.08721032453516 -0.531999324310811 80.85319372555888
lradius 28.693091945727634
lwrist 7.747152889899955
lhand -21.590230406679805 46.071850160181725
lfingers 7.12502
lthumb 4.804479488245107 75.99735149480829
rclavicle -4.533851309123039e-16 -7.764981973281276e-16
rhumerus -31.68489451182756 -23.10029319481722 -76.5942044258484
rradius 24.566404276525702
rwrist 5.088287826844767
rhand -17.4904030585007 24.1430924615471
rfingers 7.12502
rthumb 8.762096918555866 -5.6549975984206995
21
root 0.7136183419589559 17.934586616588685 -2.504588325757302 -2.2806402817841906 -0.14701781708028827 2.8752862548818605
lfemur 7.569574032259018 -2.464869026836175 -28.840354471018657
ltibia 17.795842910852947
lfoot -17.42699738468651 -0.6623307415746402
ltoes 2.4531349369532234
rfemur -30.365875393082035 1.5179255695797327 17.009442782959958
rtibia 31.310594227670176
rfoot -7.039692727934879 -12.0921844858882
rtoes -4.482905801423016
lowerback 10.70465292472256 -0.6952164563506231 -3.7496963524922675
upperback 0.5765655194974003 -1.4240702622195525 0.760341562015227
thorax -5.448012769893256 -0.6389387644191111 3.0700002850397716
lowerneck -16.653734208367528 -2.6849106292214526 -1.8153350945485722
upperneck 22.437594271918968 -3.2929611560845444 -0.6984052272411347
head 9.752096511684686 -1.7744264146990938 -0.38882077538814774
lclavicle -4.519645011754008e-16 -7.862987523173227e-16
lhumerus -23.46435341384264 -3.1785096837757134 81.20170768892307
lradius 29.69200612766929
lwrist 8.285888950200716
lhand -27.716324588040433 22.009772140603083
lfingers 7.12502
lthumb -1.661071010883803 51.02838517231833
rclavicle -4.52849399348293e-16 -7.761552160893438e-16
rhumerus -32.5510723169046 -23.354959907200097 -76.14610685114678
rradius 24.78723423946526
rwrist 4.616102794895929
rhand -17.566747261327457 23.427503324477517
rfingers 7.12502
rthumb 8.678764817435722 -6.328685235607861
22
root 0.6336360063471942 17.92337036319628 -2.046886898872449 -1.2528448570408521 0.6000485733321756 3.221741896436023
lfemur 11.37602268324308 -2.1140302401942432 -28.94486547336864
ltibia 13.136332251132654
lfoot -17.10508475331252 -1.6235428275282302
ltoes 1.3107251556022415
rfemur -28.73135896770909 5.46019743379623 14.513574749920668
rtibia 19.71431946191147
rfoot -8.719168662524412 -15.139476148452873
rtoes -4.682615235617693
lowerback 10.117842717053998 -0.8734530877855651 -4.3812025482837385
upperback 0.4723149127178023 -1.79409359763286 0.7645820692318757
thorax -5.316459564030977 -0.8057733782405999 3.3303334450237454
lowerneck -16.54092416166299 -2.6651702878507626 -1.864524200378012
upperneck 22.383695773809432 -3.352364513721908 -0.5679984429222333
head 9.773989352214787 -1.799734993347577 -0.381595259509222
lclavicle -4.519690621834455e-16 -7.862711383952887e-16
lhumerus -22.81695744157203 -4.564752592215097 81.39889017189702
lradius 30.486180265011722
lwrist 8.990907653744088
lhand -27.557986837592555 23.08648087273117
lfingers 7.12502
lthumb -1.5571281754585424 52.18705200388584
rclavicle -4.528592265723018e-16 -7.761627680542857e-16
rhumerus -33.360867595966596 -23.821260417833127 -75.56227256106244
rradius 24.757951214335822
rwrist 4.679781949045742
rhand -17.669738237931412 23.587150813889835
rfingers 7.12502
rthumb 8.643301286144181 -6.328082157939961
